<svg xmlns="http://www.w3.org/2000/svg" width="1344" height="1354.667" viewBox="0 0 1008 1016" preserveAspectRatio="xMidYMid meet" xmlns:v="https://vecta.io/nano"><path d="M0 508v508h504 504V508 0H504 0v508zM505.6 36.2c4 6.2 12.9 20.7 19.9 32.3L541 94l8 12.7c3.1 5.1 5.7 8.3 6.8 8.3.9 0 5.7-4.2 10.7-9.3C576 95.9 582.2 92 588.4 92c4.4 0 8 2.9 9.4 7.8 1.5 4.9 1.6 26.6.1 40.3-1.6 16.2-1.3 15.7-25.3 38.9-16.2 15.7-27.8 33.4-34.6 52.5-2.2 6.1-6 26.2-6 31.5 0 1.6-.4 3.1-1 3.5-1.6 1-8.9-4.9-21.2-17.2l-11.7-11.6-12.1 11.6c-13.3 12.9-20.8 18.6-21.5 16.5-.2-.7-.9-5.6-1.5-10.8-2.4-21-11-41.1-25.7-60.3-2.6-3.4-11.6-13-19.9-21.2-10.3-10.3-15.7-16.4-17.2-19.6-2.4-5.4-4.2-21.9-4.2-39.9 0-17.5 2-22 10-22 6.2 0 13.2 4.4 22.5 14.1 6.3 6.7 9.1 9 10.6 8.7 1.5-.2 5.3-5.5 13.5-18.8l12.1-20c.9-2 28.1-45.9 30.2-48.7.9-1.2 2.1-2.3 2.6-2.3.6 0 4.2 5.1 8.1 11.2zm-167.3 87.2c6.3 4 11.3 9.3 19.8 20.6 9.6 12.9 15.8 19.8 34.5 38.4 9.4 9.4 19.2 19.9 21.7 23.3 16.7 22 24.7 42.8 24.7 64.1 0 17.4-5 28.3-15.5 33.5-11.6 5.8-27.1 0-32.3-12.1-1.2-2.7-3.3-10.2-4.7-16.7-5.7-26.3-10-34.1-32.6-58.3-23.2-24.9-34.8-50.4-36.6-80.8-.9-15.8-.4-16.6 10-15.9 4.4.4 7 1.3 11 3.9zm337.9-2.8c1.1.7.9 18.6-.2 26.9-1.5 10.4-4.5 21.1-8.5 30.6-6 13.9-12.8 23.6-30.6 43-15.5 17-21.6 27.5-25.3 43.4-4 17-4.9 20.3-6.7 25.1-2.3 5.9-7.7 11.9-12.8 14.1-2 .8-6.3 1.5-9.6 1.6-12.1.1-21.2-8.3-24.9-22.9-4-15.5.2-37.5 11-58.5 6.9-13.3 11.8-19.4 30.8-38.5 19.5-19.5 25.1-25.7 36.2-40.4 13-17.3 19.8-23.1 29.4-25.1 3.3-.7 9.6-.3 11.2.7zm-485.7 44.8l12 3.4 16.5 4.6 21.5 5.6c16.1 4.3 19.9 4.2 30.5-.8 10.7-5 17.1-7.2 21.5-7.2 6.7 0 7.5 1.1 12.4 15.7 5.3 15.8 12.7 27.1 32.3 48.5 16.5 18.2 18.3 20.5 21.7 27.9 6.1 13 6.5 23.7 1.1 29.1l-2.8 2.8h-37.1H283l-1.5 2.4c-.9 1.4-2.2 7.8-3.1 16.2-1.7 15.1-3 18.3-8.8 22.7-1.8 1.4-5.7 3.4-8.7 4.4-4.9 1.6-9.5 1.8-50.9 1.8-42.1 0-45.9-.1-51-1.9-13.9-4.8-26.7-17.5-29.4-29.1-.4-1.7-.9-3.8-1.2-4.7-.6-2.1 4.3-5.5 20.1-13.8 6.6-3.5 15-8.3 18.8-10.6l6.7-4.4v-7.2c0-4-.5-11.6-1-16.8-.6-5.2-1.4-14.9-2-21.5l-2.5-31c-2.9-33.7-3.2-41-2.3-41.6s5 .4 24.3 5.5zm637.2 16.3l-2.7 32.8-2.5 30.5c-2.4 28.7-2.4 33.6 0 35.4 1.1.9 9.4 5.7 18.5 10.7 24.1 13.4 24 13.3 24 17.2 0 9.4-11.4 22.9-24.6 29.3-10.7 5.1-16.9 5.6-63.2 5.2-36-.3-40.1-.5-44.2-2.2-12.7-5.3-15.4-10.8-17.5-35.6-.4-4.1-1.1-8.1-1.7-8.8-.8-.9-9.7-1.2-38.5-1.2h-37.4l-2.4-2.6c-5.5-6-4.1-19.4 3.5-34.5 2.4-4.6 10-13.8 20-24.2 16.4-17.1 26.9-34 32.4-51.9 1.9-6.2 3.4-9.1 4.8-9.9 4.2-2.2 12.7-.4 24.3 5.1 12.3 5.8 16.4 6.3 26 3.5l16.7-4.4 32.8-8.6c29.5-7.9 31.4-8.3 32.4-7.3.6.5.3 8.6-.7 21.5zM501.3 298.1c4.6 2.4 12 9.6 29.7 28.9 6.2 6.9 14.3 15.3 17.7 18.7l6.4 6.3h33.8 33.8l4.8 12c6.4 16.3 16.2 32.3 30.5 50.1l12 15.3c0 .2-1.2 1.6-2.7 3.3-1.6 1.6-5.8 6.4-9.5 10.7l-6.8 7.7v37.2c0 27.5-.4 37.8-1.3 39.6-.6 1.4-7.9 7.3-16.1 13.2-8.3 6-16.3 11.9-17.8 13.3l-2.8 2.4v52.4c0 28.7-.4 52.9-.9 53.7-.7 1.1-4.3 1.3-18.5.9-16.7-.4-17.8-.5-20.8-2.8-9.4-7-26.4-18.6-39.5-27-8.1-5.2-16.5-10.7-18.5-12.4l-3.8-2.9v-12.9V593l4.2-4.7c4.8-5.1 13.8-12 27.6-21.3 10.5-7 12.2-9.1 13-15.7.6-5.4-1.6-10.4-5.4-12.2-1.7-.8-18.1-1.1-53.9-1.1h-51.3l-3.1 2.6c-2.9 2.4-3.1 3.1-3.1 8.7.1 4.9.5 6.7 2.3 8.8 1.2 1.5 9.2 7.6 17.7 13.7 8.5 6 17.5 13.1 20 15.6l4.5 4.7v13.7 13.7l-9 6-21.5 14.2-24 15.9-11.4 7.8-17.6.1h-17.5l-.5-54.3c-.3-37.8-.8-54.5-1.6-55-.6-.4-9-6.3-18.7-13.1L344 528.8v-38.7c-.1-28.8-.4-39-1.3-40.2-1.5-1.9-10-11.8-14.4-16.8-1.8-2-3.3-4-3.3-4.4 0-.8 3.7-5.4 12.6-15.7 13-15 27.1-38.9 33-55.8l1.8-5.2h33.4 33.3l7.8-7.8a547.6 547.6 0 0 0 13.6-14.2c17.2-19 33.2-34 36.2-34 .2 0 2.3 1 4.6 2.1zM258.5 370c10.9 2.3 20.5 12.2 20.5 21.2 0 9.9-9.5 19.2-26 25.3l-7.5 2.8-43.5.8c-23.9.4-45.3 1.2-47.5 1.7-2.2.6-6.3 1.5-9 2-2.8.6-9.5 2.7-15 4.7-21.4 7.9-25.3 8.7-31.2 6.4-8.1-3-11.2-11.3-7.3-19.3 4.2-8.9 21.6-22.4 41.5-32.3 18.2-9.2 31.1-12.8 50-14.2 15.4-1.2 68.5-.6 75 .9zm552.2-.9c17.4 1.4 25.1 3.4 42.3 10.8 19 8.2 41.5 24 48.4 34 3.4 4.9 3.9 11.5 1.1 15.7-2 3.1-9.5 6.6-13.9 6.6-1.8 0-7.3-1.4-12.2-3.2-18.6-6.7-22.3-7.9-29-9.5l-8.9-2.1c-1.1-.3-21.6-1-45.5-1.4-33.6-.7-44.6-1.2-48.2-2.4-12.4-3.9-24.5-12.4-27.3-19.4-3-6.9-1.3-15.1 4.2-20.6 4.7-4.9 11.8-7.5 22.9-8.4 14.4-1.3 51.3-1.4 66.1-.1zm-530.6 73.5c4.7 2.9 6.9 6.5 6.9 11.2 0 5.5-3.2 8.1-28.8 24.2-7.3 4.6-14.2 9.4-15.3 10.8-2.5 3.3-2.4 8 .3 10.9 2.1 2.2 2.6 2.3 20.7 2.3 24.8 0 29.8 1.6 36.3 11.1 5.4 8.1 4.6 15.9-3 27.4-12 18.2-32.7 33.8-54.2 40.9-11.4 3.7-19 4.6-39.4 4.6-27 0-38.5-1.5-56.6-7.2-10.3-3.3-33.8-14.3-48.8-23-4.6-2.6-8.6-4.8-8.8-4.8-.3 0-11.3-6.4-24.6-14.2C40.8 522.7 29 514.9 29 513c0-1.4 9.3-7.9 21-14.6l30.5-17.6c26.8-15.4 39.2-21.8 53-27.3 19.2-7.6 19.9-7.7 66.5-8.5 33.5-.6 42.7-1.1 48-2.5 14.5-3.7 26.2-3.7 32.1.1zm460.8-1c8.2 2.7 18.3 3.3 54.8 3.4 51.9 0 52.3.1 101.3 27.3l22.5 12.7a107.08 107.08 0 0 0 5.5 3.3c23.2 12.9 37.9 22.2 38.7 24.4.9 2.4-3.3 5.5-23.5 17.6-55.9 33.3-83.1 46.9-103.2 51.7-16.9 4-56 5.4-72.5 2.6-23.5-4-47.7-18.9-63-38.6-7.2-9.4-9.9-15.6-10-23 0-5.6.4-7.1 3-11 2-2.9 4.8-5.4 8.4-7.2l5.3-2.8h20.5 20.4l2.4-2.6c5.7-6.1 2.2-10.7-17-22.4-14.5-8.9-17.7-11.2-23.2-16.4-3.6-3.3-4.3-4.7-4.3-7.7 0-6.2 6.4-12.1 14.5-13.2 4.6-.7 14.5.3 19.4 1.9zM319.3 581.3c9.2 5.4 15.4 15.5 14.4 23.6-.8 6.8-3.2 10.8-11.6 19.2-8.9 8.8-20.8 16.9-37.6 25.4-14.7 7.5-22 10.2-35.5 13-9 1.8-43.1 2.1-55.5.4-9.1-1.2-21-3.6-24-4.8-1.1-.5-5.4-2.1-9.5-3.6-16.3-5.9-41.3-20.2-56.1-32.1-12.9-10.3-16.6-20.5-9.6-27.1 4.8-4.6 9.7-5.8 16.6-4.3 3.1.7 6.1 1.6 6.6 2 1.8 1.3 22.9 9.8 28.5 11.5 3 .9 10.9 2.5 17.5 3.6 16.5 2.8 57.7 3 70.4.4 17.2-3.5 29.6-8.5 44.6-18.1 18.9-12 20.4-12.6 29.7-12.1 4.9.3 7.8 1.1 11.1 3zm382.4.7c3.2 1.8 8.3 5 11.3 7 13.2 8.9 31 16.5 46 19.6 11.8 2.4 55.3 2.4 68.5 0 10.2-1.9 20.7-4.3 23.9-5.6 33.1-13.3 36.6-14.2 42.9-11.5 9.8 4.1 12.5 12.3 6.9 20.1-9.6 13.1-39.6 32.3-67.2 43-19.4 7.5-31.5 9.4-58.8 9.4-29.8 0-40.5-2.3-63.6-14-32.2-16.1-50.6-33.4-50.6-47.5 0-9.8 8.3-20.1 19-23.6 1.4-.5 5.5-.7 9.2-.5 5.3.3 7.8 1 12.5 3.6zm-183.8 74.6l23.1 13.9 13.8 8.6c5.7 3.5 12.1 7.7 14.3 9.2l4 2.8-2 2.7c-1.1 1.5-10.3 11-20.5 21.2L532 733.5l-34.3.3-34.2.2-20.7-21c-11.5-11.5-20.8-21.6-20.8-22.4 0-1.5 7-6.2 31-20.7 25.3-15.2 42.4-24.9 43.9-24.9.8 0 10.3 5.2 21 11.6zm-188.8 1.1c5.6 3.3 7.7 12.2 4.7 20.6-1.9 5.4-9.9 15.1-17.7 21.8-3.6 3.1-13.8 10.5-22.5 16.5-30.9 21.1-43.9 37.6-50.5 64-2.6 10.2-5.1 26.2-5.1 32.2 0 8.5-.3 8.8-9.8 11.6l-20.7 6.1-10 3.1c-7 2.4-25.9 7.6-29.3 8.1l-3.4.5.7-9.3c.3-5.2 1-13.7 1.5-18.9l2.5-26.5 2.5-23c.5-3.3 1.2-9.6 1.5-14 .4-4.4 1.1-9.7 1.7-11.9 1.1-4.6-.1-8.2-3.8-10.9-1.4-1-9.8-6.4-18.7-11.9s-16.5-10.5-16.9-11.1c-.4-.7-.1-1.8.6-2.5 1.7-1.7 14.2-6.8 24.6-9.9 8.2-2.5 9.7-2.6 46.5-3.3l41.5-1.5c18.1-3.5 34-9.4 46.5-17.3l9.5-6.1c12.8-8.2 18.4-9.7 24.1-6.4zm349.4.2c2.2 1 8.1 4.4 13 7.6 10.2 6.7 22.8 13 33 16.8 13.9 5.2 20.3 5.8 61 6.7 35.1.7 38.5.9 44.8 3 9.4 3 25.7 9.6 27 10.9 1.6 1.6-.6 3.5-17.8 14.4-8.2 5.2-16.3 10.9-17.9 12.6-2.7 2.8-2.8 3.3-2.2 8.8 1.9 15 5.5 49 6.6 61.3.5 5.8 1.4 14.3 2 19 .5 4.7 1.1 11.6 1.2 15.5.3 6.7.2 7-2 7.3-1.3.2-3.1 0-4-.4s-5.5-1.8-10.2-3.1l-11.5-3.2c-5.7-1.7-14.1-4-27-7.6-18.6-5.1-17.1-3.8-17.9-16.3-1.2-21.1-6.6-42.5-13.3-53.4-1.3-2.1-2.3-4-2.3-4.3 0-1.4-8.8-12.5-13.4-16.9-6.7-6.4-13-11.2-31.1-23.6-16.6-11.3-26.9-20.7-32-29-5.5-9.1-5.9-19-.9-25 2.1-2.5 3.3-3 6.7-3 2.3 0 6 .9 8.2 1.9zM356 709.6c4 2.4 6 7.4 6 14.8 0 11.7-4.4 21.1-22.8 48.7-21.2 31.8-21.9 33.9-23.1 69.9-.8 21.1-.8 21.6-3.8 28-3.4 7.3-8.1 12.2-13.5 14.1-5.3 1.8-10.5-.1-16.8-6.4-8-8.1-12.9-19.5-16.9-39.5-1.3-6.6-1.4-37.1-.2-42.1l2.7-10.6c3.6-14.5 11.9-27.9 22.3-35.9 3.1-2.4 10.8-7.6 17.1-11.6 13.4-8.5 19.4-13 31-23.4 9.3-8.3 12.3-9.3 18-6zm294.9 1.1c2 1.4 4.5 3.6 5.6 4.8 4.2 4.4 16.4 14.3 22.4 18.1 18.4 11.6 27.2 17.7 31.4 21.8 10.1 10.1 15.6 21.2 19.2 39.4 2.5 12.1 1.6 44.3-1.4 55.7-6.5 24.6-22.1 40.3-33.9 34.1-3.5-1.8-7.5-6.2-9.7-10.5-3.9-7.8-4.6-12.5-5.5-36.1-1.1-31.5-2.4-36.2-16.1-56.4-24-35.2-29.9-46.8-29.9-58.9 0-6.6 1-9.2 4.8-12.4 3.7-3.1 8.6-3 13.1.4zm-239 35.1c4.5 2.1 9.7 7.6 11.3 12.1.7 2 1.2 7.2 1.2 11.6-.1 9.3-1.7 13.7-10.2 29.5-11.6 21.3-13.5 28.9-13.5 51.5-.1 20.1 1.1 25.8 9.7 46.8 4.9 11.9 5.6 14.4 5.6 20.4 0 11.8-6.2 20.8-15.7 22.8-7.1 1.4-15.1-5.8-28-25.3-17.3-26.1-24.4-44.5-27.3-70.2-1.1-9.1-1-12.3.4-22.1 3.9-26.8 12-41.7 36.5-67.2 7.1-7.4 12.3-11.3 16.2-12 3.6-.6 9.9.3 13.8 2.1zm191.2 1.3c6.6 4.2 22.8 20.9 30 30.9 9.5 13.2 13.7 23.2 16.4 38.4 3 17.7 1.4 39.5-4.4 57.4-8.7 26.7-34.3 64.4-45.4 66.6-7.1 1.4-15.2-3.8-18.8-12.1-3.6-8.4-2.3-16.9 5.1-33.8 4.4-10 6.6-18 8.5-30.4 1.8-11.2 1.9-19.7.4-29.4-2.3-15.1-4-19.8-13.4-36.6-8.3-14.9-10.5-21.4-10.5-30.6 0-8.1 1.5-12.5 5.7-17.1 7-7.7 17.3-9 26.4-3.3zm-128.5 32.5c11.3 4.7 13.1 8.2 13.5 27.4.4 12.4.7 15 2.5 18 1.8 3.1 2.5 3.5 6.6 3.8 4.2.3 4.8 0 6.9-3 2.1-2.9 2.5-4.8 3-17.3.4-7.7 1-15.4 1.4-17.2 1.6-7.1 11.6-13.3 21.5-13.3 5.6 0 13.9 4.1 19.3 9.6 11.9 12 18.6 36.3 18.6 66.9.1 22.8-4.7 39.5-17.8 63-3.9 6.8-45.7 75.2-49.7 81.2-1.1 1.7-2.6 2.8-3.1 2.5-1-.7-7-10.3-35.8-57.7-20.6-33.8-27.1-47.2-31.1-64.2-2.6-10.8-2.6-41.9 0-54.1 5.1-24.4 13.1-38.4 24.9-44.1 7.1-3.5 13.4-4 19.3-1.5zm14.3-453.9c-8.3 8.5-24.7 26.9-28.7 32.1-2.2 2.8-2.3 3.6-1.3 5.9 2.3 5 29.7 43.4 35.1 49 4.6 5 4.1 5.5 30.5-32 6.9-9.8 12.5-18.4 12.5-19 0-.7-3.7-5.3-8.2-10.2-4.6-5-11-12.2-14.2-16-8.6-10-15.9-17.5-17.1-17.5-.6 0-4.5 3.5-8.6 7.7zm16.5 22.3c4.5 5 4.8 9.4 1.1 13.9-3.2 3.8-9.7 5.4-13.7 3.4-4-1.9-7-6.9-7.2-11.5-.1-3.3.5-4.5 3.2-6.9 2.6-2.4 4.1-2.9 8.1-2.9 4.4 0 5.2.4 8.5 4zm-112.3 51.6c-6.1 2.2-9.9 5.2-12.6 9.9-8.9 15.5 2.1 31.5 22.8 33.4l7 .6 3.6 9c2 4.9 5.1 11.1 6.8 13.6 3.8 5.5 10 11.2 11.4 10.4 1.2-.8 1.2-44.7-.1-51.3-2-11-8-19.2-17-23.8-6.8-3.4-15.4-4.2-21.9-1.8zm191.9-.7c-4.9 1.6-8.5 4-12.6 8.3-9.6 10-12.1 21.6-10.9 51.4.7 16.9.8 18.1 2.5 17.7 4.7-1.2 15.1-16.1 18.8-26.8l2-6 6-.6c11.3-1.1 19.6-6.1 23.6-14.1 3.1-6.2 3.3-11.1.7-17-3.4-7.9-11-12.7-21-13.3-3.6-.3-7.7-.1-9.1.4z"/></svg>