<?xml version="1.0" standalone="no"?>
<!DOCTYPE svg PUBLIC "-//W3C//DTD SVG 20010904//EN"
 "http://www.w3.org/TR/2001/REC-SVG-20010904/DTD/svg10.dtd">
<svg version="1.0" xmlns="http://www.w3.org/2000/svg"
 width="1008.000000pt" height="1016.000000pt" viewBox="0 0 1008.000000 1016.000000"
 preserveAspectRatio="xMidYMid meet">
<metadata>
Created by potrace 1.16, written by Peter Selinger 2001-2019
</metadata>
<g transform="translate(0.000000,1016.000000) scale(0.100000,-0.100000)"
fill="#000000" stroke="none">
<path d="M0 5080 l0 -5080 5040 0 5040 0 0 5080 0 5080 -5040 0 -5040 0 0
-5080z m5056 4718 c40 -62 129 -207 199 -323 70 -115 140 -230 155 -255 16
-25 51 -82 80 -127 31 -51 57 -83 68 -83 9 0 57 42 107 93 95 98 157 137 219
137 44 0 80 -29 94 -78 15 -49 16 -266 1 -403 -16 -162 -13 -157 -253 -389
-162 -157 -278 -334 -346 -525 -22 -61 -60 -262 -60 -315 0 -16 -4 -31 -10
-35 -16 -10 -89 49 -212 172 l-117 116 -121 -116 c-133 -129 -208 -186 -215
-165 -2 7 -9 56 -15 108 -24 210 -110 411 -257 603 -26 34 -116 130 -199 212
-103 103 -157 164 -172 196 -24 54 -42 219 -42 399 0 175 20 220 100 220 62 0
132 -44 225 -141 63 -67 91 -90 106 -87 15 2 53 55 135 188 62 102 117 192
121 200 9 20 281 459 302 487 9 12 21 23 26 23 6 0 42 -51 81 -112z m-1673
-872 c63 -40 113 -93 198 -206 96 -129 158 -198 345 -384 94 -94 192 -199 217
-233 167 -220 247 -428 247 -641 0 -174 -50 -283 -155 -335 -116 -58 -271 0
-323 121 -12 27 -33 102 -47 167 -57 263 -100 341 -326 583 -232 249 -348 504
-366 808 -9 158 -4 166 100 159 44 -4 70 -13 110 -39z m3379 28 c11 -7 9 -186
-2 -269 -15 -104 -45 -211 -85 -306 -60 -139 -128 -236 -306 -430 -155 -170
-216 -275 -253 -434 -40 -170 -49 -203 -67 -251 -23 -59 -77 -119 -128 -141
-20 -8 -63 -15 -96 -16 -121 -1 -212 83 -249 229 -40 155 2 375 110 585 69
133 118 194 308 385 195 195 251 257 362 404 130 173 198 231 294 251 33 7 96
3 112 -7z m-4857 -448 c28 -8 82 -23 120 -34 39 -11 113 -32 165 -46 52 -13
149 -39 215 -56 161 -43 199 -42 305 8 107 50 171 72 215 72 67 0 75 -11 124
-157 53 -158 127 -271 323 -485 165 -182 183 -205 217 -279 61 -130 65 -237
11 -291 l-28 -28 -371 0 -371 0 -15 -24 c-9 -14 -22 -78 -31 -162 -17 -151
-30 -183 -88 -227 -18 -14 -57 -34 -87 -44 -49 -16 -95 -18 -509 -18 -421 0
-459 1 -510 19 -139 48 -267 175 -294 291 -4 17 -9 38 -12 47 -6 21 43 55 201
138 66 35 150 83 188 106 l67 44 0 72 c0 40 -5 116 -10 168 -6 52 -14 149 -20
215 -5 66 -16 206 -25 310 -29 337 -32 410 -23 416 9 6 50 -4 243 -55z m6372
-163 c-10 -115 -22 -262 -27 -328 -6 -66 -17 -203 -25 -305 -24 -287 -24 -336
0 -354 11 -9 94 -57 185 -107 241 -134 240 -133 240 -172 0 -94 -114 -229
-246 -293 -107 -51 -169 -56 -632 -52 -360 3 -401 5 -442 22 -127 53 -154 108
-175 356 -4 41 -11 81 -17 88 -8 9 -97 12 -385 12 l-374 0 -24 26 c-55 60 -41
194 35 345 24 46 100 138 200 242 164 171 269 340 324 519 19 62 34 91 48 99
42 22 127 4 243 -51 123 -58 164 -63 260 -35 30 8 105 28 167 44 62 16 210 55
328 86 295 79 314 83 324 73 6 -5 3 -86 -7 -215z m-3264 -1164 c46 -24 120
-96 297 -289 62 -69 143 -153 177 -187 l64 -63 338 0 338 0 48 -120 c64 -163
162 -323 305 -501 66 -82 120 -151 120 -153 0 -2 -12 -16 -27 -33 -16 -16 -58
-64 -95 -107 l-68 -77 0 -372 c0 -275 -4 -378 -13 -396 -6 -14 -79 -73 -161
-132 -83 -60 -163 -119 -178 -133 l-28 -24 0 -524 c0 -287 -4 -529 -9 -537 -7
-11 -43 -13 -185 -9 -167 4 -178 5 -208 28 -94 70 -264 186 -395 270 -81 52
-165 107 -185 124 l-38 29 0 129 0 128 42 47 c48 51 138 120 276 213 105 70
122 91 130 157 6 54 -16 104 -54 122 -17 8 -181 11 -539 11 l-513 0 -31 -26
c-29 -24 -31 -31 -31 -87 1 -49 5 -67 23 -88 12 -15 92 -76 177 -137 85 -60
175 -131 200 -156 l45 -47 0 -137 0 -137 -90 -60 c-50 -33 -146 -97 -215 -142
-69 -45 -177 -116 -240 -159 l-114 -78 -176 -1 -175 0 -5 543 c-3 378 -8 545
-16 550 -6 4 -90 63 -187 131 l-177 123 0 387 c-1 288 -4 390 -13 402 -15 19
-100 118 -144 168 -18 20 -33 40 -33 44 0 8 37 54 126 157 130 150 271 389
330 558 l18 52 334 0 333 0 78 78 c42 42 103 106 136 142 172 190 332 340 362
340 2 0 23 -10 46 -21z m-2428 -719 c109 -23 205 -122 205 -212 0 -99 -95
-192 -260 -253 l-75 -28 -435 -8 c-239 -4 -453 -12 -475 -17 -22 -6 -63 -15
-90 -20 -28 -6 -95 -27 -150 -47 -214 -79 -253 -87 -312 -64 -81 30 -112 113
-73 193 42 89 216 224 415 323 182 92 311 128 500 142 154 12 685 6 750 -9z
m5522 9 c174 -14 251 -34 423 -108 190 -82 415 -240 484 -340 34 -49 39 -115
11 -157 -20 -31 -95 -66 -139 -66 -18 0 -73 14 -122 32 -186 67 -223 79 -290
95 -38 9 -78 18 -89 21 -11 3 -216 10 -455 14 -336 7 -446 12 -482 24 -124 39
-245 124 -273 194 -30 69 -13 151 42 206 47 49 118 75 229 84 144 13 513 14
661 1z m-5306 -735 c47 -29 69 -65 69 -112 0 -55 -32 -81 -288 -242 -73 -46
-142 -94 -153 -108 -25 -33 -24 -80 3 -109 21 -22 26 -23 207 -23 248 0 298
-16 363 -111 54 -81 46 -159 -30 -274 -120 -182 -327 -338 -542 -409 -114 -37
-190 -46 -394 -46 -270 0 -385 15 -566 72 -103 33 -338 143 -488 230 -46 26
-86 48 -88 48 -3 0 -113 64 -246 142 -240 141 -358 219 -358 238 0 14 93 79
210 146 58 34 195 113 305 176 268 154 392 218 530 273 192 76 199 77 665 85
335 6 427 11 480 25 145 37 262 37 321 -1z m4608 10 c82 -27 183 -33 548 -34
519 0 523 -1 1013 -273 118 -66 220 -123 225 -127 6 -4 30 -19 55 -33 232
-129 379 -222 387 -244 9 -24 -33 -55 -235 -176 -559 -333 -831 -469 -1032
-517 -169 -40 -560 -54 -725 -26 -235 40 -477 189 -630 386 -72 94 -99 156
-100 230 0 56 4 71 30 110 20 29 48 54 84 72 l53 28 205 0 204 0 24 26 c57 61
22 107 -170 224 -145 89 -177 112 -232 164 -36 33 -43 47 -43 77 0 62 64 121
145 132 46 7 145 -3 194 -19z m-4216 -1397 c92 -54 154 -155 144 -236 -8 -68
-32 -108 -116 -192 -89 -88 -208 -169 -376 -254 -147 -75 -220 -102 -355 -130
-90 -18 -431 -21 -555 -4 -91 12 -210 36 -240 48 -11 5 -54 21 -95 36 -163 59
-413 202 -561 321 -129 103 -166 205 -96 271 48 46 97 58 166 43 31 -7 61 -16
66 -20 18 -13 229 -98 285 -115 30 -9 109 -25 175 -36 165 -28 577 -30 704 -4
172 35 296 85 446 181 189 120 204 126 297 121 49 -3 78 -11 111 -30z m3824
-7 c32 -18 83 -50 113 -70 132 -89 310 -165 460 -196 118 -24 553 -24 685 0
102 19 207 43 239 56 331 133 366 142 429 115 98 -41 125 -123 69 -201 -96
-131 -396 -323 -672 -430 -194 -75 -315 -94 -588 -94 -298 0 -405 23 -636 140
-322 161 -506 334 -506 475 0 98 83 201 190 236 14 5 55 7 92 5 53 -3 78 -10
125 -36z m-1838 -746 c108 -64 212 -127 231 -139 19 -12 81 -51 138 -86 57
-35 121 -77 143 -92 l40 -28 -20 -27 c-11 -15 -103 -110 -205 -212 l-186 -185
-343 -3 -342 -2 -207 210 c-115 115 -208 216 -208 224 0 15 70 62 310 207 253
152 424 249 439 249 8 0 103 -52 210 -116z m-1888 -11 c56 -33 77 -122 47
-206 -19 -54 -99 -151 -177 -218 -36 -31 -138 -105 -225 -165 -309 -211 -439
-376 -505 -640 -26 -102 -51 -262 -51 -322 0 -85 -3 -88 -98 -116 -92 -28
-111 -34 -207 -61 -33 -10 -78 -23 -100 -31 -70 -24 -259 -76 -293 -81 l-34
-5 7 93 c3 52 10 137 15 189 5 52 17 172 25 265 9 94 20 197 25 230 5 33 12
96 15 140 4 44 11 97 17 119 11 46 -1 82 -38 109 -14 10 -98 64 -187 119 -89
55 -165 105 -169 111 -4 7 -1 18 6 25 17 17 142 68 246 99 82 25 97 26 465 33
209 5 396 11 415 15 181 35 340 94 465 173 22 14 65 41 95 61 128 82 184 97
241 64z m3494 -2 c22 -10 81 -44 130 -76 102 -67 228 -130 330 -168 139 -52
203 -58 610 -67 351 -7 385 -9 448 -30 94 -30 257 -96 270 -109 16 -16 -6 -35
-178 -144 -82 -52 -163 -109 -179 -126 -27 -28 -28 -33 -22 -88 19 -150 55
-490 66 -613 5 -58 14 -143 20 -190 5 -47 11 -116 12 -155 3 -67 2 -70 -20
-73 -13 -2 -31 0 -40 4 -9 4 -55 18 -102 31 -47 13 -98 28 -115 32 -57 17
-141 40 -270 76 -186 51 -171 38 -179 163 -12 211 -66 425 -133 534 -13 21
-23 40 -23 43 0 14 -88 125 -134 169 -67 64 -130 112 -311 236 -166 113 -269
207 -320 290 -55 91 -59 190 -9 250 21 25 33 30 67 30 23 0 60 -9 82 -19z
m-3225 -517 c40 -24 60 -74 60 -148 0 -117 -44 -211 -228 -487 -212 -318 -219
-339 -231 -699 -8 -211 -8 -216 -38 -280 -34 -73 -81 -122 -135 -141 -53 -18
-105 1 -168 64 -80 81 -129 195 -169 395 -13 66 -14 371 -2 421 5 20 17 68 27
106 36 145 119 279 223 359 31 24 108 76 171 116 134 85 194 130 310 234 93
83 123 93 180 60z m2949 -11 c20 -14 45 -36 56 -48 42 -44 164 -143 224 -181
184 -116 272 -177 314 -218 101 -101 156 -212 192 -394 25 -121 16 -443 -14
-557 -65 -246 -221 -403 -339 -341 -35 18 -75 62 -97 105 -39 78 -46 125 -55
361 -11 315 -24 362 -161 564 -240 352 -299 468 -299 589 0 66 10 92 48 124
37 31 86 30 131 -4z m-2390 -351 c45 -21 97 -76 113 -121 7 -20 12 -72 12
-116 -1 -93 -17 -137 -102 -295 -116 -213 -135 -289 -135 -515 -1 -201 11
-258 97 -468 49 -119 56 -144 56 -204 0 -118 -62 -208 -157 -228 -71 -14 -151
58 -280 253 -173 261 -244 445 -273 702 -11 91 -10 123 4 221 39 268 120 417
365 672 71 74 123 113 162 120 36 6 99 -3 138 -21z m1912 -13 c66 -42 228
-209 300 -309 95 -132 137 -232 164 -384 30 -177 14 -395 -44 -574 -87 -267
-343 -644 -454 -666 -71 -14 -152 38 -188 121 -36 84 -23 169 51 338 44 100
66 180 85 304 18 112 19 197 4 294 -23 151 -40 198 -134 366 -83 149 -105 214
-105 306 0 81 15 125 57 171 70 77 173 90 264 33z m-1285 -325 c113 -47 131
-82 135 -274 4 -124 7 -150 25 -180 18 -31 25 -35 66 -38 42 -3 48 0 69 30 21
29 25 48 30 173 4 77 10 154 14 172 16 71 116 133 215 133 56 0 139 -41 193
-96 119 -120 186 -363 186 -669 1 -228 -47 -395 -178 -630 -39 -68 -457 -752
-497 -812 -11 -17 -26 -28 -31 -25 -10 7 -70 103 -358 577 -206 338 -271 472
-311 642 -26 108 -26 419 0 541 51 244 131 384 249 441 71 35 134 40 193 15z"/>
<path d="M4889 6903 c-83 -85 -247 -269 -287 -321 -22 -28 -23 -36 -13 -59 23
-50 297 -434 351 -490 46 -50 41 -55 305 320 69 98 125 184 125 190 0 7 -37
53 -82 102 -46 50 -110 122 -142 160 -86 100 -159 175 -171 175 -6 0 -45 -35
-86 -77z m165 -223 c45 -50 48 -94 11 -139 -32 -38 -97 -54 -137 -34 -40 19
-70 69 -72 115 -1 33 5 45 32 69 26 24 41 29 81 29 44 0 52 -4 85 -40z"/>
<path d="M3931 6164 c-61 -22 -99 -52 -126 -99 -89 -155 21 -315 228 -334 l70
-6 36 -90 c20 -49 51 -111 68 -136 38 -55 100 -112 114 -104 12 8 12 447 -1
513 -20 110 -80 192 -170 238 -68 34 -154 42 -219 18z"/>
<path d="M5850 6171 c-49 -16 -85 -40 -126 -83 -96 -100 -121 -216 -109 -514
7 -169 8 -181 25 -177 47 12 151 161 188 268 l20 60 60 6 c113 11 196 61 236
141 31 62 33 111 7 170 -34 79 -110 127 -210 133 -36 3 -77 1 -91 -4z"/>
</g>
</svg>
